<svg xmlns="http://www.w3.org/2000/svg" xml:space="preserve" viewBox="0 0 1920 1080"> <style> .st4{stroke-miterlimit:10}.st4,.st5{fill:none;stroke:#34285c;stroke-width:5} </style> <g id="Layer_1"> <linearGradient id="SVGID_1_" x1="948.682" x2="948.682" y1="-21.197" y2="1100.219" gradientUnits="userSpaceOnUse"> <stop offset=".04" stop-color="#ffb5aa"></stop> <stop offset=".993" stop-color="#ffeae7"></stop> </linearGradient> <path fill="url(#SVGID_1_)" d="M-3604.9-37.6h9107.1v1386h-9107.1z"></path> </g> <g id="Layer_11"> <linearGradient id="SVGID_00000057130290116086701530000015273734418093765040_" x1="1053.255" x2="1053.255" y1="1019.485" y2="61.951" gradientUnits="userSpaceOnUse"> <stop offset="0" stop-color="#ff95ba"></stop> <stop offset=".993" stop-color="#ffdeea"></stop> </linearGradient> <path fill="url(#SVGID_00000057130290116086701530000015273734418093765040_)" d="M5440.9 1109h-8768c-129.1 0-57.3-178.6-15-171.1 138.3 24.5 203.7-5 260-49.5 56.3-44 105.7-103 218.2-136.1 25.9-11.8 50.4-25.9 74.9-39.9 24.5-14.1 49-28.1 74.9-39.9 12.7-5.4 25.9-9.1 39.5-12.3 13.6-3.2 26.8-6.4 39.5-11.3 14.5-5.9 25.9-17.2 37.2-28.6 11.3-11.3 22.7-22.2 37.7-27.2 26.3-9.1 56.7-5 87.6 1.4 30.4 5.9 61.3 14.5 87.1 14.1 24-6.8 48.1-11.8 72.1-13.6 24-1.8 48.5-1.4 73.5 2.7 70.3-1.8 143.8-11.8 212.8-34 69-21.8 133.8-55.4 186.5-104.4 36.8-11.8 67.1-31.3 95.3-54 28.1-22.7 54.4-48.1 83.5-71.7 63.5-39 127.9-50.8 193.3-48.5s131.1 19.1 197.4 37.2c14.1 8.2 29.9 22.2 46.3 34.9 16.3 12.7 33.1 24 49.5 26.3 11.3 1.4 20.9-6.4 29.9-16.3 8.6-10 16.8-21.3 24.5-27.2 27.7-15.4 54.4-10 78 5s44 39 59.4 59.4c19.1 14.1 39 28.1 58.5 41.7 19.5 13.6 39 28.1 57.6 42.2 27.2-4.1 42.6 1.8 58.1 5.9 15.4 4.1 30.9 6.8 58.5-4.1 46.3 33.1 80.3 23.6 114.3 5.9 34-17.2 68.1-42.6 114.3-40.4 71.2 20 122.5 65.8 177.4 105.7s113 74.9 196.9 72.6c39.5 16.3 73.5 41.3 107.1 67.1 33.6 25.4 67.1 51.3 104.8 69 24 11.3 50.8 13.6 77.6 16.3 26.8 2.7 53.1 6.4 76.7 20 29.5 10.4 49 31.8 64.9 55.8 16.3 24 29.9 50.4 48.5 70.8 22.7 11.3 58.5 14.1 94.4 11.8s71.7-9.5 95.3-17.7h99.8l2.7-.5s22.2 2.7 12.7-2.7c-9.1-5-11.8-15.4.9-34 17.2-37.2 36.8-45.8 61.7-59.4 25-13.6 54.9-32.7 93.9-90.3 10-6.8 23.6-10 37.7-12.7 14.1-2.3 28.1-4.1 39.9-7.7 15.9-10 30.9-20 46.3-28.6 15.4-8.6 31.3-16.8 49.5-22.2 12.7-8.6 24.5-25.4 36.8-40.8 12.2-15.4 25-29.9 38.1-34.5 20.4-4.5 39.9-1.8 59 .5 19.1 1.8 37.7 3.2 57.6-4.5 29.5 22.7 49.9 18.1 66.7 3.6 17.2-14.5 30.9-39.5 48.1-58.1 41.3-4.5 71.2-26.8 99.4-52.2 28.1-25.4 54.4-54 88.5-71.7 19.5-18.6 40.8-40.8 64.9-58.1 24-16.8 51.3-28.6 81.7-25.9 12.7 1.4 21.8 9.5 30.9 19.1 9.1 9.5 17.2 20 27.7 25.9 23.1 13.2 45.4 24 66.7 36.3 21.3 12.3 41.7 26.3 61.3 45.8 30.9 42.6 74.9 81.2 124.8 108.4 49.9 27.2 105.3 44 158.8 42.6 19.5-3.6 36.3-17.7 52.6-33.1 15.9-15.4 31.3-32.2 48.1-40.4 13.2-6.4 29 0 44.5 9.1s30.4 20.9 42.2 25c9.5 3.2 18.6 3.6 27.7 5 9.1 1.4 17.7 3.2 26.3 9.5 47.6 39.9 73 86.2 101.6 130.7 28.6 44 60.3 85.8 120.2 116.6 26.8 40.8 49 66.7 76.2 83.5 27.2 16.8 59.9 24 107.1 26.8 67.1 11.8 104.8-29 137.9-78.9s61.7-108.9 111.6-133.4c44-50.4 62.2-72.1 84.8-79.4s49.5 0 110.7 8.6c24.5-11.3 47.2-29 71.2-40.4 24-11.3 49-15.9 78.5-.9l7.3.9c.9-6.8 4.5-13.6 13.6-20.4 11.8-9.1 24.5-8.2 37.2-6.8 12.7 1.4 25.9 3.2 37.7-4.5 18.6-12.3 29.5-23.1 41.7-30.9s25.9-12.7 49.5-12.7l8.6 5c-.9-13.6 5-25.4 24.5-27.7 43.6-2.7 87.1 18.6 123.4 49.9s65.8 72.1 81.7 108.9c17.7 19.1 40.4 32.2 63.5 44.5s54.9 26.8 75.8 39.9l1.8-1.8c27.2-22.7 44-40.8 58.1-60.8 18.1-25.4 31.3-54 55.8-97.5 76.2-20.4 131.6-97.1 178.8-165.2 45.8-66.2 87.1-123.9 129.8-115.7 1.4.5 2.3.9 3.6 1.4h.9s15.9-24.5 42.6-40.8c5-3.2 11.3-6.4 19.5-6.8 7.3-.5 14.1.9 20.4 3.6 12.2 4.5 24.5 13.2 39 17.2 32.2 3.2 60.8 11.8 87.6 24.5 26.8 12.7 52.6 28.1 78.9 45.4 24 .5 39.9 1.8 53.5 8.2 13.6 6.4 24.5 17.7 38.6 38.1 39.9 32.7 74 54 110.3 64s75.8 8.6 126.1-4.5c17.7.5 44.9 12.7 70.3 27.2s49.9 32.7 62.6 44.9c25.9 39 39.9 65.3 57.2 89.4 17.2 24 38.6 46.3 78.5 76.7 18.6 24 33.1 48.5 48.1 72.6 15 24 30.9 47.2 53.1 69.4 15.9 21.3 28.6 49 45.8 68.5 17.2 20 38.1 32.2 71.2 22.2 162.6.7 68.4 169.1 25.6 169.1z"></path> </g> <g id="Layer_6"> <path id="Layer_2" fill="#ffcac3" d="M1000.5 574.3c-44.9-108.4 6.8-204.2 88-249.5s191-41.3 261.3 49.9c0 0 106.8 183.9 7.6 283.1s-267.3 79.5-356.9-83.5z"></path> </g> <g id="Layer_7"> <linearGradient id="SVGID_00000041285058608894637370000003923824816745962897_" x1="1023.813" x2="1023.813" y1="151.473" y2="526.238" gradientUnits="userSpaceOnUse"> <stop offset=".04" stop-color="#ff95ba"></stop> <stop offset=".993" stop-color="#ffdeea"></stop> </linearGradient> <path fill="url(#SVGID_00000041285058608894637370000003923824816745962897_)" d="M-1224 167.7c6.4-5 38.6-9.1 67.1-8.2 29 .9 54.4 6.8 48.5 21.8-3.6 6.8-40.4 12.3-72.1 11.8-31.2-.5-58.4-7.3-43.5-25.4m967.3 95.7c20 3.6 83.9-3.2 124.3-1.4s56.3 12.3-20.4 49c-21.8 6.8-46.7 6.4-72.1 5s-50.4-4.5-73.5-2.3c-22.2 10.4-47.6 18.1-73 21.8-25.4 3.6-51.7 3.2-76.7-2.7-20.9-17.7-46.3-17.7-70.8-18.1-24.5-.5-49-2.3-67.6-23.1-19.5-8.2-52.6-3.2-83.9-.9-31.3 2.3-61.3 2.7-74.4-14.1 9.5-14.1 33.6-15.4 59.4-14.5 25.9 1.4 53.5 5.4 70.8 1.8h20.9c-23.6-15-17.7-26.3-2.3-32.7 15-6.8 39-8.6 52.2-4.5 8.2 3.6 95.7-2.7 171-1.8 75.3.5 138.8 8.2 99.4 39.5h16.8l-.1-1zM-2914 286.5c54-9.1 113.9-10.4 174.2-8.2 60.3 1.8 120.7 7.3 175.1 10.4 11.3 4.1 16.3 12.7 21.3 21.3 4.5 8.6 8.6 17.2 17.7 21.8 15.4 7.7 35.8 4.1 55.8 1.8s39.5-3.6 53.5 8.2c12.7 10.4 5 26.3-7.7 40.8-12.7 14.5-31.3 26.8-40.8 30.4-10.4 4.5-22.7 5.4-34.9 5.4s-24.5-.9-35.8-.9c-33.6.5-70.8 5.9-106.2 4.1-34.9-1.4-68.1-9.5-93.9-36.3-54.4-10.9-113-8.6-172-5-58.5 3.6-117.5 8.6-173.3 3.2-22.7-1.8-30.9-15.4-28.6-28.1s15.9-24 36.8-21.8c15.9-.5 37.2 2.3 58.5 3.6 21.3 1.4 42.2.5 56.7-6.4 10-4.5 14.1-14.1 19.1-23.1 5.9-8.4 11.7-17.5 24.5-21.2M55.9 336.9c9.1-4.1 24-5.4 39-5.4s29.9 1.8 39.5 5c34.9 20.4 1.4 33.1-34 34-35.4 1.3-72.1-9.1-44.5-33.6m-2082 84.4c7.7-5 37.7-9.5 61.7-7.3 24.5 1.8 43.6 10 30.4 29.9-8.6 6.8-37.7 11.8-62.2 9.5-23.6-2.6-42.6-11.7-29.9-32.1m-898.8 20.9c14.5-2.3 66.2-9.5 108.4-8.2 42.6 1.4 76.2 10.9 54.9 43.6-10.9 10.9-64.4 19.1-108.9 15.9-44.5-3.2-79.8-17.8-54.4-51.3M-159.6 508c8.6-4.1 104.8-5.4 190.1 0s160.6 16.8 127.5 37.7c-25 7.3-82.6 7.3-140.7 5.4-58.5-1.4-117.5-4.1-144.7-1.4-29.9 6.4-64.9 1.8-79.4-7.3-14-8.6-7.2-22.2 47.2-34.4m-3055.3 100.2c44.9-15.4 81.2-6.4 89.4 3.6 8.2 10.4-11.8 21.8-79.4 12.3-3.6-.5-8.6-2.7-11.3-5.4s-3.2-6.4 1.3-10.5M999.7 307.4c10-5 30.9-7.7 51.3-7.7 20.9 0 41.3 2.3 51.3 7.7 5 2.7 15.4 11.3 21.8 20 6.4 8.6 9.1 18.1-.9 23.1-22.2 8.2-102.5 10.9-152.4 4.5-51-5.8-70.5-20.8 28.9-47.6m1047.6 28.1c19.5-7.7 33.6-5 46.7.9s25.4 15 40.8 19.5c18.6 3.2 38.1 0 55.8 1.4s33.6 6.8 44.9 26.8c7.7 5.9 31.3 2.7 50.4 2.7s34 2.7 24.5 20.4c-10.9 9.1-35.4 10-60.8 8.6-25.4-1.4-51.7-4.5-65.3-4.5-17.2 0-27.7 4.5-37.7 10-10 5.4-19.1 11.3-33.1 14.1-34 2.3-73.5 6.8-112.1 5.9-38.6-.9-75.8-7.7-104.8-27.7-8.2-4.1-21.8-2.3-34-2.3-11.8 0-22.2-2.7-22.2-15.9 15-14.5 28.6-10.9 43.6-10 15 .9 30.9-.9 50.8-25.9 19.1-5.4 39.5-2.7 59-3.2 19.4-.3 38.5-3.5 53.5-20.8M716.5 485.3c40.4-4.5 82.1-5.4 124.3-5 42.2.5 83.9 2.3 125.2 1.8 43.6 16.3 29.9 29.5 1.8 38.6-28.1 9.1-70.8 15-84.8 16.3-17.2 17.2-41.3 25-66.7 27.2-25.4 2.3-52.2-.5-75.3-4.1-11.3-1.8-19.5-7.7-28.1-13.2-8.6-5.4-17.2-10.9-29.9-10.9-15.4-.5-30.4 0-45.8.5-15.4 0-30.4.5-45.8-.5-4.1 0-10.9-.9-15.9-2.7-5-2.3-8.6-5.9-6.4-12.7 4.1-11.3 27.2-12.7 52.2-11.8 25 .9 51.3 4.1 61.3 1.4 6.8-1.8 12.3-6.8 17.2-11.8 4.9-5 9.9-10.4 16.7-13.1m2464.1-167c5-5.9 20.4-14.1 35.4-17.2 15-3.2 29-.9 31.8 13.2 2.3 11.8-12.2 13.6-28.6 12.3-16.3-1-34-6-38.6-8.3zm503.2 16.8c2.3-13.2 7.7-19.5 15.9-22.2 8.2-2.7 18.6-2.7 29.9-2.7 29 1.8 65.3-5 99.4-5.9 34-.9 65.3 5 84.8 32.2 10 4.5 26.3 2.3 40.8 2.7 14.5.5 27.2 4.1 29 20.9-.9 25.4-25.4 26.3-53.5 26.3s-59.9-.9-76.2 20.9c-33.1 11.8-67.1 10-101.2 3.2-34-6.8-67.1-18.1-98.5-25.9-12.2 0-34.5 2.7-55.8 2.7s-41.3-3.6-48.1-15.9c-5.4-9.1-2.7-16.8 2.7-22.2 5.9-5.4 14.5-9.1 22.2-10 20-2.3 41.3-2.7 62.2-2.7 21.3 0 42.2 1.4 62.6 2.3l-16.2-3.7zm1098 49.9c15.9-9.1 32.2-10 47.6-12.7 15.9-2.7 30.9-6.8 44-21.8 28.6-10.4 58.1-9.5 86.7-3.6s57.2 16.3 83.5 25.9c7.7 0 33.6-2.3 57.2-1.4s44.9 5 42.6 17.2c-1.8 10.9-18.6 14.5-37.2 15s-38.6-1.8-46.3-1.8c-29.5-4.5-87.1.5-143.4 2.3-55.8 1.3-111.1-.5-134.7-19.1M3322.2 501.2c4.1 0 14.5-.5 22.7 1.4 8.2 1.8 14.5 5.4 10 14.5-4.5 8.6-19.1 11.3-34.5 11.3s-31.8-1.8-39.9-1.8c-37.7 0-72.1 5.9-106.2 11.3s-68.5 10.4-105.7 9.5c-27.2-12.7-54.9-19.1-83.5-21.8s-57.2-1.4-87.1.9c-5.4 0-17.7 1.4-28.6.5-10.9-.9-20.4-4.1-20.4-12.7 2.3-13.6 44.9-15.4 90.3-14.1s92.6 5 104.4 1.8h16.8c-17.2-11.3-14.5-21.8-4.5-29.5 10-7.7 26.8-12.3 38.1-12.3 16.3 3.2 85.3-4.5 142-3.6 56.3.5 100.3 9.1 66.2 45.4h20l-.1-.8zm1875.6 41.7c5.4-3.6 22.2-10.4 38.1-12.7 15.9-2.3 29.9-.5 29.9 13.2 0 16.3-14.1 19.1-29.9 16.3-15.8-2.7-32.6-10.9-38.1-16.8zm-1347.5 16.8c7.7-11.3 39.9-18.6 70.3-19.5 30.9-.9 60.3 4.5 64 19.5-8.2 15.9-35.4 20.9-64 19.5-28.5-1.4-57.6-9.5-70.3-19.5zm-5758-350.7c-9.5 9.5-20 11.8-31.3 11.8-11.3.5-23.1-1.4-34.9 1.8-25.4 17.7-59.9 24.5-94.8 25.4s-71.2-3.2-100.7-6.8c-27.2-19.1-59.9-19.5-92.6-18.6-33.1.9-66.2 3.6-94.4-10 15-10.9 34-14.1 54-14.1s40.4 1.8 58.1 1.8c37.7 3.2 104.4-.5 170.6-1.8 65.7-.9 131 0 166 10.5m0 0c-9.5 9.5-20 11.8-31.3 11.8-11.3.5-23.1-1.4-34.9 1.8-25.4 17.7-59.9 24.5-94.8 25.4s-71.2-3.2-100.7-6.8c-27.2-19.1-59.9-19.5-92.6-18.6-33.1.9-66.2 3.6-94.4-10 15-10.9 34-14.1 54-14.1s40.4 1.8 58.1 1.8c37.7 3.2 104.4-.5 170.6-1.8 65.7-.9 131 0 166 10.5"></path> </g> <path id="Layer_8" d="M-3416.8 958c140.2 24.5 203.7-5 260-49.5 56.3-44 105.7-103 218.2-136.1 25.9-11.8 50.4-25.9 74.9-39.9 24.5-14.1 49-28.1 74.9-39.9 12.7-5.4 25.9-9.1 39.5-12.3 13.6-3.2 26.8-6.4 39.5-11.3 14.5-5.9 25.9-17.2 37.2-28.6 11.3-11.3 22.7-22.2 37.7-27.2 26.3-9.1 56.7-5 87.6 1.4 30.4 5.9 61.3 14.5 87.1 14.1 24-6.8 48.1-11.8 72.1-13.6 24-1.8 48.5-1.4 73.5 2.7 70.3-1.8 143.8-11.8 212.8-34 69-21.8 133.8-55.4 186.5-104.4 36.8-11.8 67.1-31.3 95.3-54s54.4-48.1 83.5-71.7c63.5-39 127.9-50.8 193.3-48.5s131.1 19.1 197.4 37.2c14.1 8.2 29.9 22.2 46.3 34.9 16.3 12.7 33.1 24 49.5 26.3 11.3 1.4 20.9-6.4 29.9-16.3 8.6-10 16.8-21.3 24.5-27.2 27.7-15.4 54.4-10 78 5s44 39 59.4 59.4c19.1 14.1 39 28.1 58.5 41.7s39 28.1 57.6 42.2c27.2-4.1 42.6 1.8 58.1 5.9 15.4 4.1 30.9 6.8 58.5-4.1 46.3 33.1 80.3 23.6 114.3 5.9 34-17.2 68.1-42.6 114.3-40.4 71.2 20 122.5 65.8 177.4 105.7s113 74.9 196.9 72.6c39.5 16.3 73.5 41.3 107.1 67.1 33.6 25.4 67.1 51.3 104.8 69 24 11.3 50.8 13.6 77.6 16.3 26.8 2.7 53.1 6.4 76.7 20 29.5 10.4 49 31.8 64.9 55.8 16.3 24 29.9 50.4 48.5 70.8 22.7 11.3 58.5 14.1 94.4 11.8s71.7-9.5 95.3-17.7h99.8l2.7-.5s22.2 2.7 12.7-2.7c-9.1-5-11.8-15.4.9-34 17.2-37.2 36.8-45.8 61.7-59.4 25-13.6 54.9-32.7 93.9-90.3 10-6.8 23.6-10 37.7-12.7 14.1-2.3 28.1-4.1 39.9-7.7 15.9-10 30.9-20 46.3-28.6s31.3-16.8 49.5-22.2c12.7-8.6 24.5-25.4 36.8-40.8 12.2-15.4 25-29.9 38.1-34.5 20.4-4.5 39.9-1.8 59 .5 19.1 1.8 37.7 3.2 57.6-4.5 29.5 22.7 49.9 18.1 66.7 3.6 17.2-14.5 30.9-39.5 48.1-58.1 41.3-4.5 71.2-26.8 99.4-52.2 28.1-25.4 54.4-54 88.5-71.7 19.5-18.6 40.8-40.8 64.9-58.1 24-16.8 51.3-28.6 81.7-25.9 12.7 1.4 21.8 9.5 30.9 19.1 9.1 9.5 17.2 20 27.7 25.9 23.1 13.2 45.4 24 66.7 36.3 21.3 12.3 41.7 26.3 61.3 45.8 30.9 42.6 74.9 81.2 124.8 108.4 49.9 27.2 105.3 44 158.8 42.6 19.5-3.6 36.3-17.7 52.6-33.1 15.9-15.4 31.3-32.2 48.1-40.4 13.2-6.4 29 0 44.5 9.1s30.4 20.9 42.2 25c9.5 3.2 18.6 3.6 27.7 5 9.1 1.4 17.7 3.2 26.3 9.5 47.6 39.9 73 86.2 101.6 130.7 28.6 44 60.3 85.8 120.2 116.6 26.8 40.8 49 66.7 76.2 83.5 27.2 16.8 59.9 24 107.1 26.8 67.1 11.8 104.8-29 137.9-78.9s61.7-108.9 111.6-133.4c44-50.4 62.2-72.1 84.8-79.4 22.7-7.3 49.5 0 110.7 8.6 24.5-11.3 47.2-29 71.2-40.4 24-11.3 49-15.9 78.5-.9l7.3.9c.9-6.8 4.5-13.6 13.6-20.4 11.8-9.1 24.5-8.2 37.2-6.8 12.7 1.4 25.9 3.2 37.7-4.5 18.6-12.3 29.5-23.1 41.7-30.9s25.9-12.7 49.5-12.7l8.6 5c-.9-13.6 5-25.4 24.5-27.7 43.6-2.7 87.1 18.6 123.4 49.9s65.8 72.1 81.7 108.9c17.7 19.1 40.4 32.2 63.5 44.5s54.9 26.8 75.8 39.9l1.8-1.8c27.2-22.7 44-40.8 58.1-60.8 18.1-25.4 31.3-54 55.8-97.5 76.2-20.4 131.6-97.1 178.8-165.2 45.8-66.2 87.1-123.9 129.8-115.7 1.4.5 2.3.9 3.6 1.4h.9s15.9-24.5 42.6-40.8c5-3.2 11.3-6.4 19.5-6.8 7.3-.5 14.1.9 20.4 3.6 12.2 4.5 24.5 13.2 39 17.2 32.2 3.2 60.8 11.8 87.6 24.5s52.6 28.1 78.9 45.4c24 .5 39.9 1.8 53.5 8.2 13.6 6.4 24.5 17.7 38.6 38.1 39.9 32.7 74 54 110.3 64s75.8 8.6 126.1-4.5c17.7.5 44.9 12.7 70.3 27.2s49.9 32.7 62.6 44.9c25.9 39 39.9 65.3 57.2 89.4 17.2 24 38.6 46.3 78.5 76.7 18.6 24 33.1 48.5 48.1 72.6 15 24 30.9 47.2 53.1 69.4 15.9 21.3 28.6 49 45.8 68.5 17.2 20 38.1 32.2 71.2 22.2" class="st4"></path> <path id="Layer_3" d="M3305.9 801.1c-13.6-18.1-26.8-35.4-34.9-54.4-8.2-19.1-11.3-39-5.9-62.2-3.2-13.2-10.4-25-13.2-36.3-.9-4.1-1.8-8.2-.9-12.3m-4821.2-301.7c-20.4 11.3-38.1 27.2-54 44.9-15.4 17.7-29.5 37.2-41.7 55.8l-49.9 28.6-49.9 28.6m-132.9 333c31.8 2.3 63.1.5 93.5-5.9 29.9-6.4 59-17.7 85.8-34.5 14.1-2.7 30.9 0 47.2 1.8 16.3 1.8 32.2 2.3 44.5-5.4 22.7-26.3 49-48.5 75.3-70.3 26.3-21.8 53.5-43.6 77.6-68.5 15.9-29 26.8-43.1 40.8-52.6s31.3-15 59.9-26.8c18.6-16.8 31.3-38.6 46.3-57.6 15-19.1 31.8-35.8 57.6-41.7m190.4 12.1c44.9 71.2 93 85.8 145.6 93.5 53.1 7.7 110.7 8.6 174.7 52.2m-1185.1-58.5-5.4 49.9-5.4 49.9c-14.1 13.2-39 39-63.5 64.9-24.5 25.9-49.5 52.6-62.6 67.1-43.6 13.6-75.3 20.4-104.8 32.2-29.5 11.8-56.3 29-90.7 64.4m236.7 66.7c84.4 13.6 145.2 4.5 203.3-16.3 57.6-20.9 112.1-53.5 183.8-86.7 21.3-1.8 41.3-2.3 60.3-5.4 19.1-3.2 37.7-9.1 56.3-21.8 21.8.9 39.9-3.6 57.2-11.3 17.2-7.7 33.6-18.1 50.8-29 29-7.7 57.6-15.9 85.8-25.9 28.1-10 54.9-22.2 80.8-38.1 26.8-3.2 54.4-6.4 81.7-10.4 27.2-4.1 54.4-10 80.3-18.6 11.3 0 20.9 4.5 30.9 9.5 10 4.5 20 9.1 31.8 8.6 24-1.4 48.1-9.1 71.7-16.3 23.6-7.3 47.2-14.5 69.9-15 27.2-.9 54 1.4 81.2 2.7s54 .5 81.2-5.4c12.7-2.7 22.7-10.4 32.2-17.7 10-7.7 19.1-15 30.9-18.1 32.7 5.4 69 6.4 104.4 1.4 35.4-5 69.9-15.9 98.9-34.5m-1748.1 32.6c51.3 47.2 65.8 79.4 53.1 103-12.7 23.6-53.1 38.6-111.2 50.8-18.1 17.7-36.3 34.9-56.3 48.5-20.4 14.1-42.2 24.5-68.5 30.4m-24.9-207.8-41.7 49.9-41.7 49.9m-228.7-49.9 46.3 47.6 46.3 47.6c41.3 11.8 65.3 15.9 86.7 25.9 21.3 9.5 39.9 25 70.8 58.1m-507.8 3.7c19.1-18.6 38.1-35.8 57.6-53.1 19.5-17.2 39-34 58.5-51.7 16.8-15 26.8-30.4 39-40.8s26.8-14.5 52.6-8.2m-432.3 203.7c75.8 9.1 228.2 10 382 9.5 153.4-.9 308.1-3.2 387.5-.9M247 949.9C193.5 964 80.9 963.5-32 960.8c-113.4-2.7-227.8-7.3-286.3-2.7m-1526.4-.1h1202.3m2091.2-479.5 7.3 77.1 7.3 77.1-21.8 33.1-21.8 33.1-19.1 56.3-18.6 55.8 31.3 21.8 31.3 21.8 41.7 2.3 41.7 2.3 27.2 21.8 27.2 21.8M1120.3 890c29-11.8 46.3-34 61.3-58.5 14.5-24.5 26.3-51.3 44.5-72.6 16.8-15 36.8-22.2 55.8-30.9 19.1-8.6 37.2-19.5 50.4-41.7 9.1-15.9 20.4-35.4 30.4-55.4 10.4-20 19.5-40.4 25.4-56.7 7.3-20.4 9.1-37.7 15.4-52.6 6.4-15 16.8-27.7 41.3-39m548.9 191-45.8 44.9-45.8 44.9c-27.2 13.6-43.1 22.7-56.7 35.4s-24 27.7-39.9 53.1l-49.5 15-49.5 15m-615.2-204.3c-28.1 20.4-54 44.5-79.9 68.1-25.9 23.6-52.6 46.3-82.6 64.4-17.7 10.4-36.3 11.8-54.4 14.5-18.1 2.7-35.4 6.8-49.5 24m507.3 99.5h690.5m191.1 0h315.8M4412 414.5c-19.1 74-63.5 136.1-110.3 197.4s-95.7 121.1-124.3 191c-16.3 15-35.8 21.8-54.9 27.7-19.5 5.9-39 10.4-55.4 21.3-32.7 21.3-62.2 48.1-93.5 69.9-31.3 21.8-64.9 37.7-106.2 37.7m615.4-499.2c7.3 19.5 7.3 35.4 9.5 49.9 2.7 14.5 8.2 27.7 27.7 42.2 4.5 7.7 8.6 20.9 12.7 34s7.3 26.8 9.5 35.8c4.1 15.9 1.4 30.4.5 44.9-.9 14.5 0 29 12.2 44.5 6.8 8.6 21.8 9.1 37.2 6.4 15.4-2.3 31.3-7.7 39.9-10.4 17.2-5 25.4-11.3 31.8-20 6.4-8.6 10.4-19.1 19.5-32.2 22.2-19.1 34.9-43.6 42.2-70.3 7.3-26.8 9.1-55.8 10.4-83.9m-719.1 58.5c6.4 24 18.1 62.2 32.2 99.4s30.9 72.6 46.7 92.1m-764.9-137.1c3.2 23.1 20.4 41.7 39.9 60.3 19.5 18.1 40.4 35.8 51.7 56.7 2.3 32.2 1.8 41.3 5.4 48.1s12.2 11.8 32.2 34.9c0 17.2.5 34 3.6 49.9 3.2 15.9 9.5 30.9 20.9 45.4m1019.2-187.3h45.4m-423.8 116.6c17.7 17.2 29.9 18.6 42.6 17.2s25.4-6.4 44.9-1.4c70.3 51.3 139.3 55.4 207.8 42.2 68.5-13.2 137.5-43.6 208.3-61.7 32.7 13.6 55.4 31.3 79.9 47.2 24.5 15.9 50.8 30.4 90.7 37.7 19.1 26.8 44 37.7 71.7 41.7 27.2 3.6 57.2.5 86.7-1.8m-2234.1-.9h378.4m240.9 0 18.6-2.3 18.6-2.3m225 4.6h25.4m303.1 0h58.1m291.3 0h544.5m349.7 0h95.3M733.3 948.1H599.9c-12.7 1.8-27.2 1.8-36.8-2.3-.5-.5-1.4-.5-1.8-.9m3576.2-305.8c31.3-50.4 39-116.6 52.6-179.7 9.1-43.1 21.3-84.8 45.8-118.4M3002.3 713.9c24.5 14.5 45.8 32.2 67.1 49.9 21.3 17.7 42.2 35.8 65.8 50.8 24 6.4 41.7 10.9 57.2 18.6s29.5 19.1 46.7 38.1c45.4 15.9 66.7 22.7 85.8 32.7 19.1 10 35.8 23.6 72.1 53.5 79.4 12.3 154.7 7.7 220.5-17.2 65.8-25 123.4-71.2 167-142.5 8.2-6.4 15.4-12.3 22.2-17.7m-226.3-82.9c-28.1-5.4-40.8-13.6-50.8-25s-17.2-25.9-35.4-43.6c-5.4-5.4-13.2-8.2-20-11.3-7.3-3.2-14.1-6.4-19.1-12.7-7.3-10.4-15-25.9-15.9-39.5m-133.3 236c-13.6-18.1-26.8-35.4-34.9-54.4-8.2-19.1-11.3-39-5.9-62.2-3.2-13.2-10.4-25-13.2-36.3-.9-4.1-1.8-8.2-.9-12.3" class="st5"></path> <path id="Layer_4" d="M1049.6 569.7c-44.9-108.4 6.8-204.2 88-249.5s191-41.3 261.3 49.9" class="st5"></path> <path id="Layer_5" d="M-1269.3 122.3c6.4-5 38.6-9.1 67.1-8.2 29 .9 54.4 6.8 48.5 21.8-3.6 6.8-40.4 12.3-72.1 11.8-31.3-.4-58.5-7.2-43.5-25.4M-302 218c20 3.6 83.9-3.2 124.3-1.4s56.3 12.3-20.4 49c-21.8 6.8-46.7 6.4-72.1 5s-50.4-4.5-73.5-2.3c-22.2 10.4-47.6 18.1-73 21.8-25.4 3.6-51.7 3.2-76.7-2.7-20.9-17.7-46.3-17.7-70.8-18.1-24.5-.5-49-2.3-67.6-23.1-19.5-8.2-52.6-3.2-83.9-.9-31.3 2.3-61.3 2.7-74.4-14.1 9.5-14.1 33.6-15.4 59.4-14.5 25.9 1.4 53.5 5.4 70.8 1.8h20.9c-23.6-15-17.7-26.3-2.3-32.7 15-6.8 39-8.6 52.2-4.5 8.2 3.6 95.7-2.7 171-1.8 75.3.5 138.8 8.2 99.4 39.5h16.8l-.1-1zm-2657.4 23.2c54-9.1 113.9-10.4 174.2-8.2 60.3 1.8 120.7 7.3 175.1 10.4 11.3 4.1 16.3 12.7 21.3 21.3 4.5 8.6 8.6 17.2 17.7 21.8 15.4 7.7 35.8 4.1 55.8 1.8s39.5-3.6 53.5 8.2c12.7 10.4 5 26.3-7.7 40.8s-31.3 26.8-40.8 30.4c-10.4 4.5-22.7 5.4-34.9 5.4s-24.5-.9-35.8-.9c-33.6.5-70.8 5.9-106.2 4.1-34.9-1.4-68.1-9.5-93.9-36.3-54.4-10.9-113-8.6-172-5-58.5 3.6-117.5 8.6-173.3 3.2-22.7-1.8-30.9-15.4-28.6-28.1s15.9-24 36.8-21.8c15.9-.5 37.2 2.3 58.5 3.6 21.3 1.4 42.2.5 56.7-6.4 10-4.5 14.1-14.1 19.1-23.1 5.9-8.5 11.8-17.6 24.5-21.2m2970 50.3c9.1-4.1 24-5.4 39-5.4s29.9 1.8 39.5 5c34.9 20.4 1.4 33.1-34 34-35.5 1.4-72.2-9.1-44.5-33.6m-2082.1 84.4c7.7-5 37.7-9.5 61.7-7.3 24.5 1.8 43.6 10 30.4 29.9-8.6 6.8-37.7 11.8-62.2 9.5-23.6-2.6-42.6-11.7-29.9-32.1m-898.8 20.9c14.5-2.3 66.2-9.5 108.4-8.2 42.6 1.4 76.2 10.9 54.9 43.6-10.9 10.9-64.4 19.1-108.9 15.9s-79.8-17.7-54.4-51.3m2765.4 65.8c8.6-4.1 104.8-5.4 190.1 0s160.6 16.8 127.5 37.7c-25 7.3-82.6 7.3-140.7 5.4-58.5-1.4-117.5-4.1-144.7-1.4-29.9 6.4-64.9 1.8-79.4-7.3-14.1-8.6-7.3-22.2 47.2-34.4m-3055.3 100.3c44.9-15.4 81.2-6.4 89.4 3.6 8.2 10.4-11.8 21.8-79.4 12.3-3.6-.5-8.6-2.7-11.3-5.4-2.8-2.8-3.3-6.5 1.3-10.5M954.3 262c10-5 30.9-7.7 51.3-7.7 20.9 0 41.3 2.3 51.3 7.7 5 2.7 15.4 11.3 21.8 20 6.4 8.6 9.1 18.1-.9 23.1-22.2 8.2-102.5 10.9-152.4 4.5-51-5.8-70.5-20.8 28.9-47.6m1047.6 28.2c19.5-7.7 33.6-5 46.7.9 13.2 5.9 25.4 15 40.8 19.5 18.6 3.2 38.1 0 55.8 1.4 17.7 1.4 33.6 6.8 44.9 26.8 7.7 5.9 31.3 2.7 50.4 2.7 19.1 0 34 2.7 24.5 20.4-10.9 9.1-35.4 10-60.8 8.6-25.4-1.4-51.7-4.5-65.3-4.5-17.2 0-27.7 4.5-37.7 10-10 5.4-19.1 11.3-33.1 14.1-34 2.3-73.5 6.8-112.1 5.9-38.6-.9-75.8-7.7-104.8-27.7-8.2-4.1-21.8-2.3-34-2.3-11.8 0-22.2-2.7-22.2-15.9 15-14.5 28.6-10.9 43.6-10 15 .9 30.9-.9 50.8-25.9 19.1-5.4 39.5-2.7 59-3.2 19.5-.4 38.5-3.6 53.5-20.8M671.2 439.9c40.4-4.5 82.1-5.4 124.3-5 42.2.5 83.9 2.3 125.2 1.8 43.6 16.3 29.9 29.5 1.8 38.6-28.1 9.1-70.8 15-84.8 16.3-17.2 17.2-41.3 25-66.7 27.2-25.4 2.3-52.2-.5-75.3-4.1-11.3-1.8-19.5-7.7-28.1-13.2-8.6-5.4-17.2-10.9-29.9-10.9-15.4-.5-30.4 0-45.8.5-15.4 0-30.4.5-45.8-.5-4.1 0-10.9-.9-15.9-2.7-5-2.3-8.6-5.9-6.4-12.7 4.1-11.3 27.2-12.7 52.2-11.8 25 .9 51.3 4.1 61.3 1.4 6.8-1.8 12.3-6.8 17.2-11.8 4.9-4.9 9.9-10.4 16.7-13.1m2464.1-167c5-5.9 20.4-14.1 35.4-17.2 15-3.2 29-.9 31.8 13.2 2.3 11.8-12.2 13.6-28.6 12.3-16.4-1-34.1-6-38.6-8.3zm503.1 16.8c2.3-13.2 7.7-19.5 15.9-22.2 8.2-2.7 18.6-2.7 29.9-2.7 29 1.8 65.3-5 99.4-5.9 34-.9 65.3 5 84.8 32.2 10 4.5 26.3 2.3 40.8 2.7 14.5.5 27.2 4.1 29 20.9-.9 25.4-25.4 26.3-53.5 26.3s-59.9-.9-76.2 20.9c-33.1 11.8-67.1 10-101.2 3.2-34-6.8-67.1-18.1-98.5-25.9-12.2 0-34.5 2.7-55.8 2.7-21.3 0-41.3-3.6-48.1-15.9-5.4-9.1-2.7-16.8 2.7-22.2 5.9-5.4 14.5-9.1 22.2-10 20-2.3 41.3-2.7 62.2-2.7 21.3 0 42.2 1.4 62.6 2.3l-16.2-3.7zm1098 49.9c15.9-9.1 32.2-10 47.6-12.7 15.9-2.7 30.9-6.8 44-21.8 28.6-10.4 58.1-9.5 86.7-3.6s57.2 16.3 83.5 25.9c7.7 0 33.6-2.3 57.2-1.4 23.6.9 44.9 5 42.6 17.2-1.8 10.9-18.6 14.5-37.2 15s-38.6-1.8-46.3-1.8c-29.5-4.5-87.1.5-143.4 2.3-55.7 1.3-111.1-.5-134.7-19.1M3276.8 455.8c4.1 0 14.5-.5 22.7 1.4s14.5 5.4 10 14.5c-4.5 8.6-19.1 11.3-34.5 11.3-15.4 0-31.8-1.8-39.9-1.8-37.7 0-72.1 5.9-106.2 11.3s-68.5 10.4-105.7 9.5c-27.2-12.7-54.9-19.1-83.5-21.8s-57.2-1.4-87.1.9c-5.4 0-17.7 1.4-28.6.5s-20.4-4.1-20.4-12.7c2.3-13.6 44.9-15.4 90.3-14.1 45.4 1.4 92.6 5 104.4 1.8h16.8c-17.2-11.3-14.5-21.8-4.5-29.5 10-7.7 26.8-12.3 38.1-12.3 16.3 3.2 85.3-4.5 142-3.6 56.3.5 100.3 9.1 66.2 45.4h20l-.1-.8zm1875.7 41.7c5.4-3.6 22.2-10.4 38.1-12.7s29.9-.5 29.9 13.2c0 16.3-14.1 19.1-29.9 16.3-15.9-2.7-32.7-10.9-38.1-16.8zM3805 514.3c7.7-11.3 39.9-18.6 70.3-19.5 30.9-.9 60.3 4.5 64 19.5-8.2 15.9-35.4 20.9-64 19.5-28.6-1.3-57.6-9.5-70.3-19.5zm-5758.1-350.7c-9.5 9.5-20 11.8-31.3 11.8-11.3.5-23.1-1.4-34.9 1.8-25.4 17.7-59.9 24.5-94.8 25.4-34.9.9-71.2-3.2-100.7-6.8-27.2-19.1-59.9-19.5-92.6-18.6-33.1.9-66.2 3.6-94.4-10 15-10.9 34-14.1 54-14.1s40.4 1.8 58.1 1.8c37.7 3.2 104.4-.5 170.6-1.8 65.7-.8 131.1.1 166 10.5m0 0c-9.5 9.5-20 11.8-31.3 11.8-11.3.5-23.1-1.4-34.9 1.8-25.4 17.7-59.9 24.5-94.8 25.4-34.9.9-71.2-3.2-100.7-6.8-27.2-19.1-59.9-19.5-92.6-18.6-33.1.9-66.2 3.6-94.4-10 15-10.9 34-14.1 54-14.1s40.4 1.8 58.1 1.8c37.7 3.2 104.4-.5 170.6-1.8 65.7-.8 131.1.1 166 10.5" class="st4"></path> </svg>